HIERARCHY
ROOT mixamorig:Hips
{
	OFFSET 0.000000 102.625267 -0.521241
	CHANNELS 6 Xposition Yposition Zposition Xrotation Yrotation Zrotation
	JOINT mixamorig:Spine
	{
		OFFSET 0.000000 5.645721 -0.031929
		CHANNELS 3 Xrotation Yrotation Zrotation
		JOINT mixamorig:Spine1
		{
			OFFSET 0.000000 6.586685 -0.037251
			CHANNELS 3 Xrotation Yrotation Zrotation
			JOINT mixamorig:Spine2
			{
				OFFSET 0.000000 7.527618 -0.042572
				CHANNELS 3 Xrotation Yrotation Zrotation
				JOINT mixamorig:Neck
				{
					OFFSET 0.000000 8.468590 -0.047894
					CHANNELS 3 Xrotation Yrotation Zrotation
					JOINT mixamorig:Head
					{
						OFFSET 0.000000 5.998901 -1.158958
						CHANNELS 3 Xrotation Yrotation Zrotation
						JOINT mixamorig:HeadTop_End
						{
							OFFSET 0.000000 21.748810 -4.201760
							CHANNELS 3 Xrotation Yrotation Zrotation
							End Site
							{
								OFFSET 0.000000 22.150970 0.000000
							}
						}
					}
				}
				JOINT mixamorig:LeftShoulder
				{
					OFFSET 3.414614 7.343132 -0.058928
					CHANNELS 3 Xrotation Yrotation Zrotation
					JOINT mixamorig:LeftArm
					{
						OFFSET 6.829548 -2.246910 -0.022071
						CHANNELS 3 Xrotation Yrotation Zrotation
						JOINT mixamorig:LeftForeArm
						{
							OFFSET 24.198503 -0.424179 0.257802
							CHANNELS 3 Xrotation Yrotation Zrotation
							JOINT mixamorig:LeftHand
							{
								OFFSET 21.584717 -0.002335 0.669575
								CHANNELS 3 Xrotation Yrotation Zrotation
								JOINT mixamorig:LeftHandThumb1
								{
									OFFSET 2.193897 -1.259628 1.956942
									CHANNELS 3 Xrotation Yrotation Zrotation
									JOINT mixamorig:LeftHandThumb2
									{
										OFFSET 1.755203 -1.007660 1.565605
										CHANNELS 3 Xrotation Yrotation Zrotation
										JOINT mixamorig:LeftHandThumb3
										{
											OFFSET 2.535126 -0.998764 1.490660
											CHANNELS 3 Xrotation Yrotation Zrotation
											JOINT mixamorig:LeftHandThumb4
											{
												OFFSET 2.398251 -0.721657 1.023775
												CHANNELS 3 Xrotation Yrotation Zrotation
												End Site
												{
													OFFSET 2.205696 -0.773872 1.362551
												}
											}
										}
									}
								}
								JOINT mixamorig:LeftHandIndex1
								{
									OFFSET 7.166248 -0.069405 2.369028
									CHANNELS 3 Xrotation Yrotation Zrotation
									JOINT mixamorig:LeftHandIndex2
									{
										OFFSET 2.989986 -0.015724 0.245918
										CHANNELS 3 Xrotation Yrotation Zrotation
										JOINT mixamorig:LeftHandIndex3
										{
											OFFSET 2.739197 -0.058952 0.219132
											CHANNELS 3 Xrotation Yrotation Zrotation
											JOINT mixamorig:LeftHandIndex4
											{
												OFFSET 2.326500 -0.032570 0.188458
												CHANNELS 3 Xrotation Yrotation Zrotation
												End Site
												{
													OFFSET 2.326485 -0.032578 0.188548
												}
											}
										}
									}
								}
								JOINT mixamorig:LeftHandMiddle1
								{
									OFFSET 7.394897 0.286369 0.654762
									CHANNELS 3 Xrotation Yrotation Zrotation
									JOINT mixamorig:LeftHandMiddle2
									{
										OFFSET 3.376106 0.152466 -0.003692
										CHANNELS 3 Xrotation Yrotation Zrotation
										JOINT mixamorig:LeftHandMiddle3
										{
											OFFSET 3.185104 -0.185410 -0.047914
											CHANNELS 3 Xrotation Yrotation Zrotation
											JOINT mixamorig:LeftHandMiddle4
											{
												OFFSET 2.742905 0.223846 0.010354
												CHANNELS 3 Xrotation Yrotation Zrotation
												End Site
												{
													OFFSET 2.742889 0.224251 0.006757
												}
											}
										}
									}
								}
								JOINT mixamorig:LeftHandRing1
								{
									OFFSET 7.508747 0.282753 -1.072900
									CHANNELS 3 Xrotation Yrotation Zrotation
									JOINT mixamorig:LeftHandRing2
									{
										OFFSET 2.821857 0.317802 -0.177266
										CHANNELS 3 Xrotation Yrotation Zrotation
										JOINT mixamorig:LeftHandRing3
										{
											OFFSET 2.672325 0.088310 -0.196165
											CHANNELS 3 Xrotation Yrotation Zrotation
											JOINT mixamorig:LeftHandRing4
											{
												OFFSET 2.272652 -0.053627 -0.183955
												CHANNELS 3 Xrotation Yrotation Zrotation
												End Site
												{
													OFFSET 2.272919 -0.054016 -0.180438
												}
											}
										}
									}
								}
								JOINT mixamorig:LeftHandPinky1
								{
									OFFSET 7.285820 0.522377 -2.660948
									CHANNELS 3 Xrotation Yrotation Zrotation
									JOINT mixamorig:LeftHandPinky2
									{
										OFFSET 2.466278 0.082008 -0.249570
										CHANNELS 3 Xrotation Yrotation Zrotation
										JOINT mixamorig:LeftHandPinky3
										{
											OFFSET 1.940475 0.021858 -0.202004
											CHANNELS 3 Xrotation Yrotation Zrotation
											JOINT mixamorig:LeftHandPinky4
											{
												OFFSET 1.645287 0.153595 -0.153405
												CHANNELS 3 Xrotation Yrotation Zrotation
												End Site
												{
													OFFSET 1.645088 0.153801 -0.155289
												}
											}
										}
									}
								}
							}
						}
					}
				}
				JOINT mixamorig:RightShoulder
				{
					OFFSET -3.414604 7.343132 -0.036860
					CHANNELS 3 Xrotation Yrotation Zrotation
					JOINT mixamorig:RightArm
					{
						OFFSET -6.829551 -2.246986 0.022068
						CHANNELS 3 Xrotation Yrotation Zrotation
						JOINT mixamorig:RightForeArm
						{
							OFFSET -24.198494 -0.424141 0.158696
							CHANNELS 3 Xrotation Yrotation Zrotation
							JOINT mixamorig:RightHand
							{
								OFFSET -21.584698 -0.002243 0.686977
								CHANNELS 3 Xrotation Yrotation Zrotation
								JOINT mixamorig:RightHandThumb1
								{
									OFFSET -2.242882 -1.296806 1.978855
									CHANNELS 3 Xrotation Yrotation Zrotation
									JOINT mixamorig:RightHandThumb2
									{
										OFFSET -1.794239 -1.037361 1.583064
										CHANNELS 3 Xrotation Yrotation Zrotation
										JOINT mixamorig:RightHandThumb3
										{
											OFFSET -2.504150 -0.962166 1.471556
											CHANNELS 3 Xrotation Yrotation Zrotation
											JOINT mixamorig:RightHandThumb4
											{
												OFFSET -2.346046 -0.743172 0.992235
												CHANNELS 3 Xrotation Yrotation Zrotation
												End Site
												{
													OFFSET -2.157112 -0.792709 1.326359
												}
											}
										}
									}
								}
								JOINT mixamorig:RightHandIndex1
								{
									OFFSET -7.174488 -0.001839 2.366265
									CHANNELS 3 Xrotation Yrotation Zrotation
									JOINT mixamorig:RightHandIndex2
									{
										OFFSET -2.935219 -0.016853 0.287245
										CHANNELS 3 Xrotation Yrotation Zrotation
										JOINT mixamorig:RightHandIndex3
										{
											OFFSET -2.786827 -0.129890 0.255971
											CHANNELS 3 Xrotation Yrotation Zrotation
											JOINT mixamorig:RightHandIndex4
											{
												OFFSET -2.343559 0.168816 0.256164
												CHANNELS 3 Xrotation Yrotation Zrotation
												End Site
												{
													OFFSET -2.344208 0.169510 0.249690
												}
											}
										}
									}
								}
								JOINT mixamorig:RightHandMiddle1
								{
									OFFSET -7.274693 0.327965 0.656181
									CHANNELS 3 Xrotation Yrotation Zrotation
									JOINT mixamorig:RightHandMiddle2
									{
										OFFSET -3.309677 0.091591 0.032863
										CHANNELS 3 Xrotation Yrotation Zrotation
										JOINT mixamorig:RightHandMiddle3
										{
											OFFSET -3.186844 -0.122513 0.000971
											CHANNELS 3 Xrotation Yrotation Zrotation
											JOINT mixamorig:RightHandMiddle4
											{
												OFFSET -2.671951 -0.322540 -0.031001
												CHANNELS 3 Xrotation Yrotation Zrotation
												End Site
												{
													OFFSET -2.671928 -0.323486 -0.021820
												}
											}
										}
									}
								}
								JOINT mixamorig:RightHandRing1
								{
									OFFSET -7.453640 0.430428 -1.170334
									CHANNELS 3 Xrotation Yrotation Zrotation
									JOINT mixamorig:RightHandRing2
									{
										OFFSET -2.808174 0.165817 -0.117934
										CHANNELS 3 Xrotation Yrotation Zrotation
										JOINT mixamorig:RightHandRing3
										{
											OFFSET -2.730080 0.127754 -0.119542
											CHANNELS 3 Xrotation Yrotation Zrotation
											JOINT mixamorig:RightHandRing4
											{
												OFFSET -2.349426 0.078133 -0.107466
												CHANNELS 3 Xrotation Yrotation Zrotation
												End Site
												{
													OFFSET -2.349503 0.077988 -0.106043
												}
											}
										}
									}
								}
								JOINT mixamorig:RightHandPinky1
								{
									OFFSET -7.364456 0.463486 -2.604800
									CHANNELS 3 Xrotation Yrotation Zrotation
									JOINT mixamorig:RightHandPinky2
									{
										OFFSET -2.430134 0.174614 -0.251330
										CHANNELS 3 Xrotation Yrotation Zrotation
										JOINT mixamorig:RightHandPinky3
										{
											OFFSET -1.953583 0.007492 -0.220999
											CHANNELS 3 Xrotation Yrotation Zrotation
											JOINT mixamorig:RightHandPinky4
											{
												OFFSET -1.582039 0.276558 -0.139972
												CHANNELS 3 Xrotation Yrotation Zrotation
												End Site
												{
													OFFSET -1.581284 0.277252 -0.147002
												}
											}
										}
									}
								}
							}
						}
					}
				}
			}
		}
	}
	JOINT mixamorig:LeftUpLeg
	{
		OFFSET 6.620181 -8.816864 -0.447179
		CHANNELS 3 Xrotation Yrotation Zrotation
		JOINT mixamorig:LeftLeg
		{
			OFFSET 2.748989 -36.076775 0.650871
			CHANNELS 3 Xrotation Yrotation Zrotation
			JOINT mixamorig:LeftFoot
			{
				OFFSET 1.089303 -46.239017 1.019056
				CHANNELS 3 Xrotation Yrotation Zrotation
				JOINT mixamorig:LeftToeBase
				{
					OFFSET -0.371088 -10.380511 12.650617
					CHANNELS 3 Xrotation Yrotation Zrotation
					JOINT mixamorig:LeftToe_End
					{
						OFFSET -0.094684 -0.116785 6.663326
						CHANNELS 3 Xrotation Yrotation Zrotation
						End Site
						{
							OFFSET -0.094684 -0.116785 6.663326
						}
					}
				}
			}
		}
	}
	JOINT mixamorig:RightUpLeg
	{
		OFFSET -6.620174 -8.816818 -0.447182
		CHANNELS 3 Xrotation Yrotation Zrotation
		JOINT mixamorig:RightLeg
		{
			OFFSET -2.748991 -36.076790 0.753614
			CHANNELS 3 Xrotation Yrotation Zrotation
			JOINT mixamorig:RightFoot
			{
				OFFSET -1.089311 -46.239029 0.372114
				CHANNELS 3 Xrotation Yrotation Zrotation
				JOINT mixamorig:RightToeBase
				{
					OFFSET 0.371103 -10.380659 13.284531
					CHANNELS 3 Xrotation Yrotation Zrotation
					JOINT mixamorig:RightToe_End
					{
						OFFSET 0.094689 -0.116865 6.675873
						CHANNELS 3 Xrotation Yrotation Zrotation
						End Site
						{
							OFFSET 0.094687 -0.116865 6.675871
						}
					}
				}
			}
		}
	}
}
MOTION
Frames: 4
Frame Time: 0.016667
0.047002 97.510918 0.435163 -4.066036 -2.348310 7.289964 8.225867 0.710521 5.353567 0.451978 -0.148080 1.950546 0.440240 -0.186723 1.961003 6.648184 0.309355 0.100514 -3.952233 7.479185 -11.158927 0.000000 -0.000001 -0.000000 -1.745708 -2.291482 -5.828974 -45.810786 6.774526 -4.610227 27.779226 -108.750142 21.603974 -14.343614 -2.728190 20.585012 43.963233 -10.555549 -9.989269 3.816368 23.125853 0.234109 -7.964964 -24.589892 3.871747 0.000004 -0.000000 -0.000001 0.555383 3.871137 -6.267776 3.049659 4.620353 -24.244982 -0.798457 -3.089592 13.824211 0.000000 -0.000002 -0.000000 0.239090 -0.894056 -9.164030 0.607601 4.347499 -19.168504 0.163021 -1.897181 6.338582 0.000000 -0.000001 -0.000001 -0.131466 -4.423097 -13.046857 -0.903052 4.598972 -20.442379 1.852734 -3.037311 17.618055 0.000000 -0.000002 0.000003 -0.434445 -6.541052 -8.571376 -1.459137 5.328754 -23.550590 1.259734 -2.220901 9.637794 -0.000001 0.000001 0.000003 5.759526 -0.134316 1.232153 -59.761355 7.452109 13.360524 -9.191908 83.848837 9.241000 2.984809 7.276251 3.236371 42.221419 12.540872 9.915720 4.367611 -25.235278 -0.106840 -6.779122 18.787974 -7.494855 -0.000000 -0.000001 -0.000002 0.483392 -4.157067 5.273238 3.021077 -3.530695 22.937969 -0.643364 1.583660 -7.619775 0.000001 0.000002 -0.000002 0.214450 0.872811 7.191129 0.825983 -3.668308 21.429386 0.381190 3.123929 -19.118990 0.000001 0.000001 -0.000000 -0.013231 3.884804 9.014656 -0.363099 -4.262891 24.448225 1.106761 2.399421 -15.219142 -0.000000 0.000001 0.000000 -0.401683 7.424144 9.799932 -1.723048 -3.913832 21.090898 0.606118 0.947679 -4.763782 0.000001 0.000000 -0.000002 -4.837930 31.890023 -12.963032 36.858419 -7.547263 9.799556 -21.820964 -12.227724 6.738401 0.694824 0.010696 -0.779356 0.000000 0.000000 -0.000000 -20.143771 -20.666027 -24.693582 32.954788 8.536670 -8.599679 -19.745935 18.867573 13.861397 -3.711045 0.000002 0.000009 0.000000 -0.000000 -0.000000 
-0.334232 97.542709 0.511431 -4.096754 -1.847215 6.509733 8.012544 0.567824 5.455972 0.458099 -0.163751 1.897468 0.445272 -0.198947 1.912267 6.632297 0.291509 0.018931 -3.693887 7.175477 -10.908880 0.000001 -0.000000 0.000000 -1.571264 -2.371487 -5.827122 -46.810596 5.579993 -5.994495 23.948878 -108.034277 17.464638 -14.684434 -1.307489 19.033121 44.713615 -9.928102 -9.801286 3.923002 23.784857 0.401216 -8.208474 -22.990480 3.946442 -0.000001 -0.000002 -0.000003 0.846637 4.395974 -8.910715 3.157164 4.722924 -24.901623 -0.798185 -3.087611 13.815524 0.000000 -0.000003 0.000004 0.309278 -0.358255 -12.084110 0.627687 4.407286 -19.473197 0.162662 -1.895089 6.328478 0.000000 -0.000001 0.000000 -0.280661 -3.971404 -16.295662 -0.903797 4.632117 -20.596215 1.849412 -3.033136 17.592990 -0.000000 -0.000002 0.000002 -0.695093 -5.824717 -12.152439 -1.462381 5.379098 -23.767757 1.258406 -2.219209 9.628559 -0.000000 -0.000003 0.000000 5.637303 -0.051576 1.232422 -59.353067 6.011874 13.196201 -11.900210 85.227312 11.936794 3.915614 6.950525 4.067653 43.473707 12.052076 9.934589 4.422864 -25.513489 -0.123396 -6.921325 18.089102 -7.364848 0.000000 0.000003 0.000000 0.757004 -4.728007 7.341705 3.069529 -3.567537 23.241182 -0.642832 1.582308 -7.612528 0.000001 0.000001 0.000001 0.272975 0.552428 9.402802 0.819475 -3.653471 21.335049 0.381140 3.123748 -19.118079 0.000001 0.000001 -0.000001 -0.131154 3.949042 11.349235 -0.373701 -4.178217 23.961916 1.105688 2.397715 -15.207519 0.000001 0.000000 0.000001 -0.697184 7.643759 12.240564 -1.690176 -3.781966 20.412700 0.604150 0.945376 -4.748638 -0.000001 -0.000000 -0.000003 -5.916388 31.590561 -11.376577 37.381321 -7.032415 9.791373 -22.070266 -12.958042 6.207973 0.650712 0.010012 -0.753731 -0.000000 0.000000 0.000000 -19.413824 -20.901036 -23.565092 33.009922 8.345686 -8.317998 -19.762174 18.378441 13.368511 -3.791316 -0.000000 0.000003 0.000000 -0.000000 0.000000 
-0.834870 97.538986 0.599694 -4.186897 -1.404205 5.512362 7.820194 0.483413 5.462019 0.467695 -0.155620 1.813850 0.453672 -0.186831 1.834380 6.615133 0.272945 -0.065751 -3.440463 6.812867 -10.496628 0.000000 0.000000 -0.000000 -1.316045 -2.455609 -5.662056 -48.160135 4.043475 -7.425835 18.656790 -107.130206 11.877823 -15.034737 0.178834 17.480221 45.730196 -9.048002 -9.476137 4.053233 24.688842 0.646127 -8.396386 -20.788994 4.041789 -0.000002 0.000009 -0.000003 1.289970 5.093934 -12.594299 3.308362 4.863253 -25.813602 -0.798100 -3.086977 13.812762 -0.000001 0.000004 -0.000001 0.446306 0.379907 -16.139829 0.659432 4.499732 -19.945515 0.162538 -1.894422 6.325145 0.000001 -0.000000 -0.000001 -0.476926 -3.364189 -20.807236 -0.904602 4.674128 -20.791248 1.847731 -3.031038 17.580333 0.000001 -0.000000 0.000002 -0.990451 -4.813814 -17.102823 -1.466419 5.446993 -24.060523 1.258021 -2.218707 9.625885 0.000000 0.000000 -0.000001 5.457022 0.165432 1.209534 -58.728255 4.393068 12.957508 -18.593926 86.909041 18.615091 5.097327 6.592054 4.334483 45.153284 11.368254 9.752143 4.504103 -25.944692 -0.166290 -7.038366 17.043726 -7.214160 0.000002 0.000002 0.000001 1.188346 -5.477030 10.289301 3.143449 -3.622954 23.701518 -0.642692 1.581934 -7.610607 0.000000 0.000000 0.000002 0.374397 0.097448 12.547671 0.812600 -3.637757 21.234963 0.381175 3.123880 -19.118709 -0.000001 0.000000 -0.000003 -0.334278 4.017694 14.688831 -0.385747 -4.073833 23.362954 1.105269 2.397047 -15.203106 0.000001 0.000000 -0.000000 -1.204725 7.999185 15.770048 -1.645396 -3.612075 19.536170 0.603369 0.944427 -4.742619 -0.000002 0.000000 -0.000001 -7.338924 31.339428 -9.270449 38.255644 -6.517836 9.788532 -22.407429 -13.717992 5.527556 0.558837 0.009838 -0.747222 0.000000 0.000000 -0.000000 -18.631100 -21.161750 -22.134370 33.300881 8.151073 -8.049826 -19.877843 17.912634 12.753034 -3.875283 0.000009 0.000006 0.000000 -0.000000 -0.000000 
-1.412317 97.513748 0.695863 -4.306711 -0.998661 4.376088 7.637093 0.433535 5.407371 0.479057 -0.132873 1.710373 0.463790 -0.159781 1.737425 6.596455 0.254185 -0.152436 -3.183560 6.413042 -9.983556 -0.000000 -0.000001 0.000000 -1.005644 -2.541600 -5.395829 -49.779337 2.352543 -8.893048 11.945088 -106.256652 4.884719 -15.350736 1.725347 15.904963 46.933338 -7.979355 -9.065427 4.197059 25.780954 0.951533 -8.538297 -18.130119 4.164179 0.000006 -0.000001 -0.000000 1.884105 5.892403 -17.070465 3.494758 5.030215 -26.920444 -0.798108 -3.087049 13.813079 0.000001 -0.000002 -0.000001 0.673405 1.261247 -21.051896 0.700870 4.616809 -20.545802 0.162552 -1.894444 6.325341 -0.000001 0.000001 0.000000 -0.693145 -2.615448 -26.263571 -0.905389 4.724292 -21.024045 1.846980 -3.030085 17.574611 -0.000001 0.000000 -0.000000 -1.241464 -3.561003 -23.073687 -1.470828 5.528955 -24.413871 1.258123 -2.218867 9.626586 -0.000000 -0.000002 -0.000002 5.240607 0.465532 1.178907 -57.984324 2.663907 12.690429 -45.167744 88.609075 45.172293 6.442040 6.198326 4.283102 47.108604 10.537098 9.456230 4.605258 -26.513041 -0.237538 -7.129143 15.691905 -7.065403 -0.000000 -0.000003 -0.000002 1.786817 -6.328718 13.953118 3.240520 -3.694344 24.301805 -0.642750 1.582090 -7.611378 -0.000001 0.000001 0.000001 0.529862 -0.462250 16.448501 0.806346 -3.623407 21.143750 0.381224 3.124081 -19.120008 0.000001 0.000001 -0.000002 -0.636089 4.046588 18.849118 -0.397660 -3.959437 22.707673 1.105216 2.396959 -15.202557 -0.000000 0.000001 0.000001 -1.955221 8.385746 20.200230 -1.591668 -3.420961 18.545697 0.603191 0.944236 -4.741294 0.000000 0.000000 0.000000 -8.946447 31.099197 -6.844183 39.297326 -6.032277 9.776222 -22.800862 -14.511640 4.819186 0.455200 0.009862 -0.748038 0.000000 0.000000 -0.000000 -17.802890 -21.436407 -20.509518 33.697090 7.955940 -7.764838 -20.033756 17.458908 12.080363 -3.952723 0.000003 0.000007 -0.000000 -0.000000 -0.000000 
